<svg xmlns="http://www.w3.org/2000/svg" xmlns:xlink="http://www.w3.org/1999/xlink" version="1.1" id="Layer_1" x="0px" y="0px" width="100px" height="100px" viewBox="0 0 100 100" enable-background="new 0 0 100 100" xml:space="preserve">
<path fill="#000000" d="M83.737,41.222c-2.366,0.011-4.612,0.519-6.635,1.444L72.7,34.564l1.55-5.428l2.587-0.012  c0.634-0.004,1.145-0.799,1.141-1.432c-0.003-0.635-0.52-1.426-1.152-1.423l-8.729,0.04c-0.633,0.003-1.144,0.8-1.14,1.433  c0.003,0.634,0.519,1.425,1.152,1.422l3.749-0.017l-1.263,3.812L46.46,33.071l0.443-1.74c0.073-0.34-0.011-0.48-0.229-0.75  s-0.548-0.362-0.896-0.361l-7.171,0.033c-0.634,0.003-1.146,0.323-1.143,0.957c0.003,0.632,0.519,0.948,1.151,0.945l5.747-0.026  l-0.444,2.302c-0.002,0.003-0.001,0.116-0.002,0.118l-0.702,3.347l-1.37,3.993c-1.369-0.371-2.806-0.557-4.293-0.549  c-2.504,0.012-4.873,0.595-6.987,1.626l-3.203-4.569c-0.2-0.286-0.526-0.457-0.876-0.459c-0.344-0.004-0.677,0.165-0.881,0.448  L1.437,72.023c-0.236,0.328-0.269,0.76-0.084,1.12c0.185,0.359,0.555,0.585,0.959,0.585h35.263c0.043,0,0.086,0.002,0.128,0.001  c0.021,0,0.041-0.001,0.061-0.001h12.292c0.401,0,0.771-0.224,0.956-0.58s0.156-0.786-0.074-1.115l-2.027-2.893  c3.043-2.961,4.929-7.104,4.908-11.674c-0.031-6.634-4.069-12.325-9.805-14.797l0.787-2.278l18.865,19.357  c0.021,0.021,0.047,0.038,0.068,0.059c0.026,0.022,0.053,0.046,0.082,0.067c0.039,0.028,0.081,0.052,0.124,0.076  c0.028,0.015,0.057,0.031,0.084,0.044c0.051,0.022,0.101,0.039,0.153,0.054c0.024,0.007,0.05,0.018,0.074,0.022  c0.08,0.017,0.16,0.024,0.242,0.024c0.026,0,0.058-0.002,0.084-0.004l3.229-0.257c1.172,7.818,7.949,13.813,16.081,13.775  c8.926-0.041,16.154-7.341,16.113-16.268C99.959,48.418,92.663,41.18,83.737,41.222z M37.566,44.03  c1.175-0.006,2.317,0.141,3.404,0.42l-3.092,8.952l-5.747-8.2C33.794,44.459,35.632,44.039,37.566,44.03z M37.254,58.724  c0.125,0.044,0.253,0.064,0.378,0.063c0.404-0.002,0.783-0.22,0.987-0.575l7.106,10.14c-2.241,1.684-5.022,2.688-8.035,2.702  c-7.451,0.034-13.539-6-13.574-13.449c-0.021-4.743,2.418-8.932,6.114-11.36l6.78,9.673l-0.466,1.35  C36.339,57.864,36.655,58.517,37.254,58.724z M4.411,71.574l22.058-30.698l2.22,3.167c-4.387,2.921-7.275,7.923-7.249,13.574  c0.027,5.965,3.296,11.172,8.126,13.957H4.411z M47.984,71.574h-2.292c0.543-0.313,1.067-0.658,1.569-1.031L47.984,71.574z   M51.141,57.479c0.017,3.659-1.432,6.988-3.792,9.435l-7.845-11.193l3.632-10.514C47.826,47.311,51.115,52.01,51.141,57.479z   M63.931,56.612L45.572,37.899l0.399-1.972l23.965-0.11L63.931,56.612z M67.762,57.501c0,0.017,0,0.034,0,0.051l-1.646,0.124  l5.713-19.925l3.346,6.05C70.667,46.696,67.735,51.759,67.762,57.501z M76.37,46.155l5.588,10.268l-11.657,0.918  C70.331,52.679,72.737,48.564,76.37,46.155z M83.874,70.939c-6.723,0.03-12.336-4.879-13.395-11.312l13.422-1.058  c0.387-0.03,0.733-0.256,0.918-0.598c0.187-0.342,0.185-0.754,0-1.094l-6.437-11.823c1.644-0.724,3.458-1.133,5.367-1.141  c7.451-0.035,13.539,5.998,13.574,13.45C97.358,64.814,91.325,70.905,83.874,70.939z"/>
<path fill="#000000" d="M13.096,47.224c0.04,0,1.692-0.183,1.692-1.839v-6.529c0-1.563-1.563-1.744-1.604-1.744  c-0.222,0-0.356,0-0.356,0v-2.894c-0.018-3.548-2.438-5.479-5.379-5.479s-5.577,2.023-5.485,5.479L1.96,37.108  c0,0,0.044,0.003-0.178,0.003C1.548,37.111,0,37.385,0,38.764v6.621c0,1.472,1.741,1.839,1.782,1.839  C4.88,47.224,9.996,47.224,13.096,47.224z M8.716,44.677H6.078l0.547-2.693c-0.392-0.261-0.652-0.714-0.652-1.231  c0-0.811,0.637-1.468,1.421-1.468c0.785,0,1.422,0.657,1.422,1.468c0,0.517-0.261,0.971-0.652,1.231L8.716,44.677z M4.454,34.257  c0-1.839,1.122-3.31,2.94-3.31c1.8,0,2.939,1.287,2.939,3.31l0.002,2.854H4.45L4.454,34.257z"/>
</svg>